<svg xmlns="http://www.w3.org/2000/svg" viewBox="0 0 256 256"><defs><linearGradient id="a" x1="0%" x2="100%" y1="0%" y2="100%"><stop offset="0%" stop-color="#0e2d28"/><stop offset="100%" stop-color="#004741"/></linearGradient><linearGradient id="c" x1="0%" x2="0%" y1="0%" y2="100%"><stop offset="0%" stop-color="#f2d1b3"/><stop offset="100%" stop-color="#e2b792"/></linearGradient><linearGradient id="b" x1="0%" x2="100%" y1="0%" y2="100%"><stop offset="0%" stop-color="#1e293b"/><stop offset="100%" stop-color="#0f172a"/></linearGradient></defs><circle cx="128" cy="128" r="126" fill="url(#a)"/><circle cx="128" cy="128" r="125" fill="none" stroke="#34d399" stroke-opacity=".4" stroke-width="2.5"/><path stroke="#10b981" stroke-dasharray="4 4" stroke-opacity=".15" d="M40 128h176m-88-88v176"/><path fill="url(#b)" d="M42 245c8-60 38-75 86-75s78 15 86 75Z"/><path fill="#0a0f1d" d="M104 170c0 25 48 25 48 0Z"/><rect width="28" height="34" x="114" y="142" fill="url(#c)" rx="4"/><ellipse cx="128" cy="116" fill="url(#c)" rx="42" ry="48"/><path fill="#18181b" d="M86 110c-2-30 10-44 42-44s44 14 42 44c-8-20-20-28-42-28s-34 8-42 28"/><path fill="#18181b" d="m88 106 2 18 5-8Zm80 0-2 18-5-8Z"/><rect width="24" height="18" x="98" y="104" fill="none" stroke="#004741" stroke-width="3" rx="4"/><rect width="24" height="18" x="134" y="104" fill="none" stroke="#004741" stroke-width="3" rx="4"/><path stroke="#004741" stroke-width="3" d="M122 112h12"/><path stroke="#004741" stroke-width="2.5" d="M88 110h10m60 0h10"/><ellipse cx="110" cy="113" fill="#18181b" rx="3.5" ry="4"/><circle cx="111.5" cy="111.5" r="1" fill="#fff"/><ellipse cx="146" cy="113" fill="#18181b" rx="3.5" ry="4"/><circle cx="147.5" cy="111.5" r="1" fill="#fff"/><path fill="none" stroke="#18181b" stroke-linecap="round" stroke-width="3" d="M96 99q14-3 26 1m12 0q12-4 26-1"/><path fill="none" stroke="#c49a76" stroke-linecap="round" stroke-linejoin="round" stroke-width="2" d="m127 116-2 14h6"/><path fill="none" stroke="#a77856" stroke-linecap="round" stroke-width="2.5" d="M116 142q12 7 24 0"/><g stroke="#34d399" transform="translate(182 192)"><circle cx="16" cy="16" r="18" fill="#002d29" stroke-width="2"/><path fill="none" stroke-linecap="round" stroke-linejoin="round" stroke-width="2.5" d="m11 16 4 4 7-8"/></g></svg>